<svg width="362" height="231" viewBox="0 0 362 231" fill="none" xmlns="http://www.w3.org/2000/svg">
<path d="M108.493 217.64C64.9307 220.107 52.2044 223.068 27.7305 212.705C0.320537 201.849 -15.1912 152.316 26.4017 130.781C70.2565 108.074 74.1093 0.523588 164.158 25.5122C218.653 40.6348 215.197 104.143 263.655 96.2473C312.112 88.3518 361.179 123.711 346.589 180.852C333.862 230.692 254.977 220.125 219.603 220.6C182.893 221.094 154.133 215.055 108.493 217.64Z" fill="#EBF3FA"/>
<path d="M179.836 135.259H173.523V217.598H179.836V135.259Z" fill="#C3DAFC"/>
<path d="M254.356 135.259H248.229V217.598H254.356V135.259Z" fill="#C3DAFC"/>
<path d="M254.359 135.259H179.838V137.189H254.359V135.259Z" fill="#699DEE"/>
<path d="M254.359 174.285H179.838V176.428H254.359V174.285Z" fill="#699DEE"/>
<path d="M254.359 207.016H179.838V209.569H254.359V207.016Z" fill="#699DEE"/>
<path d="M217.487 174.284H236.042V158.983H217.487V174.284Z" fill="#C3DAFC"/>
<path d="M226.764 174.284H245.32V158.983H226.764V174.284Z" fill="#D4E4F8"/>
<path d="M217.497 170.404H220.438L220.179 169.577L220.438 168.986H217.497V170.404Z" fill="#9DC3F3"/>
<path d="M226.765 163.719H229.705L229.446 162.891L229.705 162.3H226.765V163.719Z" fill="#E3F0FF"/>
<path d="M226.764 162.3H223.823L224.082 163.127L223.823 163.719H226.764V162.3Z" fill="#9DC3F3"/>
<path d="M245.323 170.569H242.383L242.642 171.396L242.383 171.987H245.323V170.569Z" fill="#E3F0FF"/>
<path d="M244.106 160.021H238.766V162.098H244.106V160.021Z" fill="white"/>
<path d="M193.669 174.284H212.225V158.983H193.669V174.284Z" fill="#C3DAFC"/>
<path d="M202.948 174.284H221.504V158.983H202.948V174.284Z" fill="#D4E4F8"/>
<path d="M193.68 170.405H196.621L196.362 169.577L196.621 168.986H193.68V170.405Z" fill="#233862"/>
<path d="M202.945 163.719H205.886L205.627 162.891L205.886 162.3H202.945V163.719Z" fill="#2A4E96"/>
<path d="M202.947 162.3H200.006L200.265 163.127L200.006 163.719H202.947V162.3Z" fill="#233862"/>
<path d="M221.504 170.569H218.564L218.823 171.396L218.564 171.987H221.504V170.569Z" fill="#2A4E96"/>
<path d="M211.583 169.858H204.417V172.646H211.583V169.858Z" fill="white"/>
<path d="M190.207 206.967H205.982V193.96H190.207V206.967Z" fill="#C3DAFC"/>
<path d="M198.097 206.967H213.872V193.96H198.097V206.967Z" fill="#D4E4F8"/>
<path d="M190.218 203.669H192.717L192.498 202.965L192.717 202.463H190.218V203.669Z" fill="#9DC3F3"/>
<path d="M198.096 197.986H200.595L200.375 197.283L200.595 196.78H198.096V197.986Z" fill="#E3F0FF"/>
<path d="M198.096 196.78H195.596L195.815 197.483L195.596 197.986H198.096V196.78Z" fill="#9DC3F3"/>
<path d="M213.873 203.808H211.374L211.594 204.511L211.374 205.014H213.873V203.808Z" fill="#E3F0FF"/>
<path d="M212.839 194.842H208.299V196.609H212.839V194.842Z" fill="white"/>
<path d="M215.783 206.968H231.597V193.928H215.783V206.968Z" fill="#C3DAFC"/>
<path d="M223.69 206.968H239.505V193.928H223.69V206.968Z" fill="#D4E4F8"/>
<path d="M215.792 203.661H218.298L218.078 202.956L218.298 202.452H215.792V203.661Z" fill="#9DC3F3"/>
<path d="M223.688 197.963H226.194L225.974 197.258L226.194 196.754H223.688V197.963Z" fill="#E3F0FF"/>
<path d="M223.69 196.754H221.185L221.405 197.46L221.185 197.963H223.69V196.754Z" fill="#9DC3F3"/>
<path d="M239.503 203.801H236.997L237.219 204.506L236.997 205.01H239.503V203.801Z" fill="#E3F0FF"/>
<path d="M238.468 194.813H233.918V196.583H238.468V194.813Z" fill="white"/>
<path d="M192.234 159.005H206.419V147.308H192.234V159.005Z" fill="#C3DAFC"/>
<path d="M199.327 159.005H213.513V147.308H199.327V159.005Z" fill="#D4E4F8"/>
<path d="M192.243 156.039H194.491L194.293 155.407L194.491 154.955H192.243V156.039Z" fill="#9DC3F3"/>
<path d="M199.329 150.927H201.577L201.378 150.294L201.577 149.843H199.329V150.927Z" fill="#E3F0FF"/>
<path d="M199.326 149.843H197.079L197.276 150.475L197.079 150.927H199.326V149.843Z" fill="#9DC3F3"/>
<path d="M213.516 156.164H211.267L211.466 156.797L211.267 157.248H213.516V156.164Z" fill="#E3F0FF"/>
<path d="M212.584 148.101H208.502V149.689H212.584V148.101Z" fill="white"/>
<path d="M232.298 150.129H221.546V158.995H232.298V150.129Z" fill="#ED823A"/>
<path d="M226.922 150.128H216.17V158.995H226.922V150.128Z" fill="#FF9E55"/>
<path d="M232.292 156.746H230.588L230.738 156.266L230.588 155.925H232.292V156.746Z" fill="#DD732C"/>
<path d="M226.922 152.873H225.219L225.369 152.394L225.219 152.051H226.922V152.873Z" fill="#FFB27D"/>
<path d="M226.921 152.051H228.625L228.475 152.53L228.625 152.873H226.921V152.051Z" fill="#DD732C"/>
<path d="M216.169 156.842H217.873L217.723 157.321L217.873 157.664H216.169V156.842Z" fill="#FFB27D"/>
<path d="M216.874 151.934H219.968V150.731H216.874V151.934Z" fill="white"/>
<path d="M175.835 109.042L185.205 109.012L185.231 117.366H175.86L175.835 109.042Z" fill="#D3671E"/>
<path d="M173.024 109.057L180.526 109.027L180.546 117.371L173.045 117.366L173.024 109.057Z" fill="#F1A34F"/>
<path opacity="0.4" d="M180.527 109.027L173.006 109.057L173.012 111.698L180.547 117.371L180.527 109.027Z" fill="#D86713"/>
<path d="M116.393 200.363L136.056 200.303L136.111 217.833H116.447L116.393 200.363Z" fill="#D3671E"/>
<path d="M110.494 200.393L126.236 200.332L126.279 217.842L110.537 217.832L110.494 200.393Z" fill="#F1A34F"/>
<path opacity="0.4" d="M126.237 200.332L110.454 200.394L110.467 205.938L126.279 217.842L126.237 200.332Z" fill="#D86713"/>
<path d="M188.516 203.805L174.056 203.85L174.095 216.674L188.555 216.63L188.516 203.805Z" fill="#D3671E"/>
<path d="M169.715 203.871L181.291 203.827L181.323 216.651L169.747 216.696L169.715 203.871Z" fill="#F1A34F"/>
<path opacity="0.4" d="M181.291 203.827L169.686 203.872L169.696 207.949L181.323 216.651L181.291 203.827Z" fill="#D86713"/>
<path d="M140.838 178.501L155.297 178.456L155.337 191.347L140.878 191.325L140.838 178.501Z" fill="#D3671E"/>
<path d="M136.501 178.522L148.077 178.478L148.109 191.347H136.533L136.501 178.522Z" fill="#F1A34F"/>
<path opacity="0.4" d="M148.075 178.478L136.53 178.523L136.479 182.601L148.107 191.302L148.075 178.478Z" fill="#D86713"/>
<path d="M168.821 170.471L183.281 170.426L183.32 191.347L168.86 191.391L168.821 170.471Z" fill="#D3671E"/>
<path d="M164.481 170.493L176.057 170.448L176.089 191.336H164.512L164.481 170.493Z" fill="#F1A34F"/>
<path opacity="0.4" d="M176.057 170.448L164.451 170.493L164.461 174.57L176.088 183.272L176.057 170.448Z" fill="#D86713"/>
<path d="M159.112 153.292L173.572 153.248L173.611 166.139H159.152L159.112 153.292Z" fill="#D3671E"/>
<path d="M154.772 153.315L166.349 153.27L166.38 166.146L154.804 166.139L154.772 153.315Z" fill="#F1A34F"/>
<path opacity="0.4" d="M166.349 153.27L154.743 153.315L154.753 157.392L166.38 166.146L166.349 153.27Z" fill="#D86713"/>
<path d="M169.757 197.017L147.253 197.087L147.315 217.044L169.818 216.975L169.757 197.017Z" fill="#D3671E"/>
<path d="M140.5 197.12L158.516 197.051L158.565 217.008L140.549 217.078L140.5 197.12Z" fill="#F1A34F"/>
<path opacity="0.4" d="M158.517 197.051L140.455 197.12L140.47 203.466L158.566 217.008L158.517 197.051Z" fill="#D86713"/>
<path d="M135.299 117.287V217.843H189.614V117.287H135.299ZM188.383 216.554H136.529V118.469H188.383V216.554H188.383Z" fill="#699FF0"/>
<path d="M196.995 117.287H189.613V217.879H196.995V117.287Z" fill="#466AA5"/>
<path d="M189.046 140.931H135.867V143.675H189.046V140.931Z" fill="#699FF0"/>
<path d="M189.046 166.139H135.867V168.884H189.046V166.139Z" fill="#699FF0"/>
<path d="M189.046 191.346H135.867V194.091H189.046V191.346Z" fill="#699FF0"/>
<path d="M140.218 218.313C140.155 218.313 140.09 218.305 140.026 218.29C139.576 218.184 139.298 217.734 139.403 217.283L157.993 138.481C158.099 138.031 158.549 137.752 159 137.858C159.45 137.965 159.729 138.415 159.622 138.865L141.032 217.668C140.941 218.053 140.597 218.313 140.218 218.313Z" fill="#2E3552"/>
<path d="M123.482 218.313C123.418 218.313 123.354 218.305 123.289 218.29C122.839 218.184 122.56 217.734 122.667 217.283L141.256 138.481C141.363 138.031 141.813 137.752 142.263 137.858C142.713 137.965 142.992 138.415 142.886 138.865L124.295 217.668C124.205 218.053 123.861 218.313 123.482 218.313Z" fill="#2E3552"/>
<path d="M148.43 181.99H131.723C131.261 181.99 130.886 181.615 130.886 181.153C130.886 180.691 131.261 180.316 131.723 180.316H148.43C148.892 180.316 149.266 180.691 149.266 181.153C149.266 181.615 148.892 181.99 148.43 181.99Z" fill="#2E3552"/>
<path d="M145.586 194.878H129.087C128.625 194.878 128.25 194.503 128.25 194.041C128.25 193.579 128.625 193.204 129.087 193.204H145.586C146.048 193.204 146.423 193.579 146.423 194.041C146.423 194.503 146.048 194.878 145.586 194.878Z" fill="#2E3552"/>
<path d="M151.778 169.103H134.163C133.701 169.103 133.326 168.728 133.326 168.266C133.326 167.804 133.701 167.429 134.163 167.429H151.778C152.24 167.429 152.615 167.804 152.615 168.266C152.615 168.728 152.24 169.103 151.778 169.103Z" fill="#2E3552"/>
<path d="M153.954 156.048H134.972C134.51 156.048 134.135 155.673 134.135 155.211C134.135 154.75 134.51 154.375 134.972 154.375H153.954C154.416 154.375 154.79 154.75 154.79 155.211C154.79 155.673 154.416 156.048 153.954 156.048Z" fill="#2E3552"/>
<path d="M142.49 207.848H126.091C125.629 207.848 125.254 207.473 125.254 207.011C125.254 206.549 125.629 206.174 126.091 206.174H142.491C142.953 206.174 143.328 206.549 143.328 207.011C143.328 207.473 142.952 207.848 142.49 207.848Z" fill="#2E3552"/>
<path d="M157.301 143.162H138.32C137.858 143.162 137.483 142.787 137.483 142.325C137.483 141.863 137.858 141.488 138.32 141.488H157.301C157.763 141.488 158.138 141.863 158.138 142.325C158.138 142.787 157.763 143.162 157.301 143.162Z" fill="#2E3552"/>
<path d="M145.226 131.913C145.226 131.913 145.286 130.1 145.592 129.583C145.898 129.067 146.579 128.432 146.944 128.657C147.31 128.882 147.359 130.653 147.232 130.965C147.106 131.277 146.213 132.432 146.213 132.432L145.226 131.913Z" fill="#FFB27D"/>
<path d="M145.894 131.717C145.37 131.423 145.147 131.661 145.147 131.661C145.147 131.661 141.54 136.698 141.171 137.096C140.802 137.495 134.74 139.527 134.74 139.527C134.74 139.527 132.282 140.243 132.069 141.68C131.884 142.93 132.534 143.76 133.276 144.29C134.161 144.921 135.346 144.936 136.256 144.342C138.3 143.008 142.354 140.319 143.034 139.556C144.546 137.856 146.524 132.304 146.524 132.304C146.524 132.304 146.306 131.949 145.894 131.717Z" fill="#AA413E"/>
<path d="M159.999 123.363L145.539 123.407L145.578 136.232L160.038 136.187L159.999 123.363Z" fill="#D3671E"/>
<path d="M141.198 123.429L152.774 123.385L152.806 136.208L141.23 136.253L141.198 123.429Z" fill="#F1A34F"/>
<path opacity="0.4" d="M152.775 123.385L141.169 123.429L141.179 127.506L152.807 136.208L152.775 123.385Z" fill="#D86713"/>
<path d="M153.939 134.9C153.939 134.9 153.931 133.086 154.218 132.558C154.504 132.03 155.161 131.37 155.535 131.581C155.91 131.792 156.024 133.56 155.91 133.877C155.795 134.194 154.945 135.381 154.945 135.381L153.939 134.9Z" fill="#FFB27D"/>
<path d="M131.445 193.292C131.041 192.945 131.283 191.006 131.283 191.006C131.283 191.006 133.366 189.34 133.652 190.616C133.938 191.892 135.63 192.464 136.594 192.621C137.237 192.725 137.45 193.072 137.521 193.292H131.445Z" fill="#2C3A64"/>
<path d="M131.215 191.095C133.144 191.395 133.849 190.936 133.849 190.936C133.824 189.036 134.631 185.477 135.435 180.561C136.493 174.078 137.707 165.767 138.614 161.09C139.136 158.4 139.483 156.672 139.483 156.672L137.908 156.641L130.048 156.486C130.048 156.486 130.636 165.185 130.476 169.481C130.437 170.507 130.355 171.282 130.214 171.627C128.873 174.884 131.215 191.095 131.215 191.095Z" fill="#35488B"/>
<path d="M130.471 169.482C131.539 171.48 134.412 177.499 135.407 180.71C136.466 174.227 137.703 165.768 138.611 161.091C138.565 159.324 138.354 157.779 137.903 156.642L130.044 156.487C130.044 156.487 130.632 165.186 130.471 169.482Z" fill="#2C3A64"/>
<path d="M138.067 193.292C137.663 192.945 137.905 191.006 137.905 191.006C137.905 191.006 139.987 189.34 140.274 190.616C140.56 191.892 142.252 192.464 143.216 192.621C143.859 192.725 144.072 193.072 144.143 193.292H138.067Z" fill="#2C3A64"/>
<path d="M142.897 156.484C142.897 156.484 139.809 185.054 140.42 190.816C140.42 190.816 139.76 191.333 137.813 191.214C137.813 191.214 133.946 176.482 135.033 172.092C135.495 170.225 133.483 157.162 133.483 157.162L142.897 156.484Z" fill="#35488B"/>
<path d="M135.294 136.053C135.294 136.053 139.221 138.014 141.168 137.12C141.168 137.12 140.35 136.061 139.433 135.622C139.453 135.273 139.464 134.957 139.469 134.678C139.487 133.749 139.44 133.226 139.44 133.226L137.747 131.994L136.598 131.158C136.664 131.675 136.674 132.153 136.645 132.591C136.494 134.852 135.294 136.053 135.294 136.053Z" fill="#FFB27D"/>
<path d="M136.648 132.592C136.648 132.592 137.564 134.417 139.472 134.677C139.49 133.748 139.443 133.225 139.443 133.225L137.75 131.993C137.01 132.272 136.648 132.592 136.648 132.592Z" fill="#ED975D"/>
<path d="M139.881 133.107C139.881 133.107 136.366 134.359 135.62 132.158C134.875 129.957 133.919 128.637 136.131 127.745C138.344 126.853 139.067 127.544 139.493 128.217C139.922 128.892 140.775 132.725 139.881 133.107Z" fill="#FFB27D"/>
<path d="M129.796 156.485C130.347 157.631 142.526 157.58 143.128 156.772C143.373 156.444 143.653 153.156 143.814 149.333C143.903 147.216 143.954 144.934 143.944 142.9C143.926 139.582 143.74 136.927 143.272 136.724C140.662 135.592 139.049 134.871 135.639 134.975C134.588 135.007 133.635 135.614 133.178 136.561C132.358 138.257 131.196 141.261 131.107 144.809C130.969 150.276 129.103 155.04 129.796 156.485Z" fill="#C65447"/>
<path d="M140.003 140.649C140.003 140.649 140.4 146.366 143.812 149.333C143.901 147.216 143.953 144.934 143.943 142.901C142.923 141.537 141.578 140.555 140.003 140.649Z" fill="#AA413E"/>
<path d="M138.326 135.097C138.326 135.097 142.072 135.121 143.248 136.212C144.091 136.994 149.713 140.827 150.057 140.77C150.401 140.712 153.676 134.189 153.676 134.189C153.676 134.189 155.394 134.335 155.681 135.079C155.681 135.079 154.119 143.401 150.623 145.29C150.623 145.29 141.726 143.977 139.103 141.054C137.751 139.547 138.326 135.097 138.326 135.097Z" fill="#C65447"/>
<path d="M139.725 126.501C139.725 126.501 139.517 128.6 138.886 129.174C138.256 129.747 138.422 130.535 138.353 130.65C138.285 130.764 137.632 130.427 137.517 130.62C137.253 131.065 137.666 131.389 137.926 131.496C138.187 131.603 137.261 133.405 136.581 133.472C135.405 133.586 133.588 130.334 133.434 129.381C133.233 128.134 133.94 126.19 135.963 126.286C139.145 126.436 139.789 125.747 139.725 126.501Z" fill="#2B478B"/>
<path d="M222.61 197.788L200.107 197.857L200.168 217.815L222.672 217.746L222.61 197.788Z" fill="#D3671E"/>
<path d="M193.352 197.892L211.367 197.822L211.417 217.78L193.401 217.849L193.352 197.892Z" fill="#F1A34F"/>
<path opacity="0.4" d="M211.368 197.822L193.307 197.892L193.322 204.237L211.418 217.78L211.368 197.822Z" fill="#D86713"/>
<path d="M236.348 204.946L221.888 204.99L221.927 217.814L236.387 217.769L236.348 204.946Z" fill="#D3671E"/>
<path d="M217.547 205.011L229.124 204.967L229.155 217.791L217.579 217.836L217.547 205.011Z" fill="#F1A34F"/>
<path opacity="0.4" d="M229.124 204.967L217.518 205.012L217.528 209.09L229.155 217.791L229.124 204.967Z" fill="#D86713"/>
<path d="M321.397 138.129H235.117V218.62H321.397V138.129Z" fill="#C1D8F4"/>
<path d="M318.694 140.614H237.818V148.498H318.694V140.614Z" fill="#E3F0FF"/>
<path d="M318.694 156.251H237.818V164.135H318.694V156.251Z" fill="#E3F0FF"/>
<path d="M318.694 148.434H237.818V156.318H318.694V148.434Z" fill="#D4E4F8"/>
<path d="M318.694 171.889H237.818V179.773H318.694V171.889Z" fill="#E3F0FF"/>
<path d="M318.694 164.07H237.818V171.954H318.694V164.07Z" fill="#D4E4F8"/>
<path d="M318.694 187.356H237.818V195.24H318.694V187.356Z" fill="#E3F0FF"/>
<path d="M318.694 179.539H237.818V187.422H318.694V179.539Z" fill="#D4E4F8"/>
<path d="M318.694 195.105H237.818V202.989H318.694V195.105Z" fill="#D4E4F8"/>
<path d="M318.694 202.989H237.818V210.872H318.694V202.989Z" fill="#E3F0FF"/>
<path d="M318.694 210.736H237.818V218.619H318.694V210.736Z" fill="#D4E4F8"/>
<path d="M321.397 117.46H235.117V132.399H321.397V117.46Z" fill="#D5E5FB"/>
<path d="M76.1819 136.45H94.1303V121.651H76.1819V136.45Z" fill="#C3DAFC"/>
<path d="M85.1568 136.45H103.105V121.651H85.1568V136.45Z" fill="#D4E4F8"/>
<path d="M76.1935 132.697H79.0379L78.7877 131.897L79.0379 131.325H76.1935V132.697Z" fill="#9DC3F3"/>
<path d="M85.1566 126.232H88L87.7498 125.432L88 124.86H85.1566V126.232Z" fill="#E3F0FF"/>
<path d="M85.1579 124.86H82.3134L82.5647 125.66L82.3134 126.232H85.1579V124.86Z" fill="#9DC3F3"/>
<path d="M103.105 132.856H100.26L100.512 133.656L100.26 134.228H103.105V132.856Z" fill="#E3F0FF"/>
<path d="M101.931 122.655H96.7658V124.664H101.931V122.655Z" fill="white"/>
<path d="M46.3825 136.83H64.3308V122.03H46.3825V136.83Z" fill="#C3DAFC"/>
<path d="M55.3575 136.83H73.3059V122.03H55.3575V136.83Z" fill="#D4E4F8"/>
<path d="M46.3949 133.077H49.2382L48.988 132.277L49.2382 131.705H46.3949V133.077Z" fill="#9DC3F3"/>
<path d="M55.3569 126.611H58.2014L57.9501 125.811L58.2014 125.239H55.3569V126.611Z" fill="#E3F0FF"/>
<path d="M55.3575 125.239H52.5141L52.7643 126.039L52.5141 126.611H55.3575V125.239Z" fill="#9DC3F3"/>
<path d="M73.3051 133.235H70.4617L70.7119 134.036L70.4617 134.608H73.3051V133.235Z" fill="#E3F0FF"/>
<path d="M72.1297 123.035H66.9654V125.044H72.1297V123.035Z" fill="white"/>
<path d="M39.7823 136.452H32.8789V218.791H39.7823V136.452Z" fill="#C3DAFC"/>
<path d="M114.302 136.451H108.563V218.791H114.302V136.451Z" fill="#C3DAFC"/>
<path d="M114.302 136.451H39.7811V138.594H114.302V136.451Z" fill="#699DEE"/>
<path d="M114.302 175.479H39.7811V177.621H114.302V175.479Z" fill="#699DEE"/>
<path d="M114.302 208.209H39.7811V210.352H114.302V208.209Z" fill="#699DEE"/>
<path d="M77.4295 175.477H95.9851V160.176H77.4295V175.477Z" fill="#A9C8ED"/>
<path d="M86.7082 175.477H105.264V160.176H86.7082V175.477Z" fill="#D4E4F8"/>
<path d="M77.4413 171.597H80.3827L80.1237 170.77L80.3827 170.179H77.4413V171.597Z" fill="#9DC3F3"/>
<path d="M86.7081 164.912H89.6484L89.3894 164.084L89.6484 163.493H86.7081V164.912Z" fill="#E3F0FF"/>
<path d="M86.7066 163.493H83.7663L84.0253 164.32L83.7663 164.912H86.7066V163.493Z" fill="#9DC3F3"/>
<path d="M105.266 171.762H102.326L102.585 172.589L102.326 173.18H105.266V171.762Z" fill="#E3F0FF"/>
<path d="M104.049 161.214H98.7092V163.292H104.049V161.214Z" fill="white"/>
<path d="M53.6143 175.477H72.1699V160.176H53.6143V175.477Z" fill="#C3DAFC"/>
<path d="M62.8933 175.477H81.4489V160.176H62.8933V175.477Z" fill="#D4E4F8"/>
<path d="M53.626 171.597H56.5664L56.3074 170.769L56.5664 170.178H53.626V171.597Z" fill="#9DC3F3"/>
<path d="M62.893 164.912H65.8333L65.5743 164.084L65.8333 163.493H62.893V164.912Z" fill="#E3F0FF"/>
<path d="M62.8937 163.493H59.9523L60.2124 164.32L59.9523 164.912H62.8937V163.493Z" fill="#9DC3F3"/>
<path d="M81.4499 171.762H78.5096L78.7686 172.589L78.5096 173.18H81.4499V171.762Z" fill="#E3F0FF"/>
<path d="M81.4499 163.292H78.5096L78.7686 164.119L78.5096 164.71H81.4499V163.292Z" fill="#E3F0FF"/>
<path d="M73.4718 170.452H64.7687V173.838H73.4718V170.452Z" fill="white"/>
<path d="M77.4255 208.159H93.464V194.934H77.4255V208.159Z" fill="#C3DAFC"/>
<path d="M85.4465 208.159H101.485V194.934H85.4465V208.159Z" fill="#D4E4F8"/>
<path d="M77.4366 204.805H79.9779L79.7542 204.09L79.9779 203.58H77.4366V204.805Z" fill="#9DC3F3"/>
<path d="M85.4445 199.027H87.9859L87.7622 198.312L87.9859 197.801H85.4445V199.027Z" fill="#E3F0FF"/>
<path d="M85.4452 197.801H82.9038L83.1275 198.517L82.9038 199.027H85.4452V197.801Z" fill="#9DC3F3"/>
<path d="M101.483 204.948H98.942L99.1657 205.663L98.942 206.174H101.483V204.948Z" fill="#E3F0FF"/>
<path d="M100.434 195.831H95.8183V197.626H100.434V195.831Z" fill="white"/>
<path d="M46.9675 208.161H65.5231V192.859H46.9675V208.161Z" fill="#C3DAFC"/>
<path d="M56.2454 208.161H74.801V192.859H56.2454V208.161Z" fill="#D4E4F8"/>
<path d="M46.9792 204.281H49.9196L49.6606 203.453L49.9196 202.861H46.9792V204.281Z" fill="#2A4E96"/>
<path d="M56.2451 197.596H59.1854L58.9264 196.768L59.1854 196.177H56.2451V197.596Z" fill="#618DC1"/>
<path d="M56.2437 196.177H53.3033L53.5623 197.004L53.3033 197.596H56.2437V196.177Z" fill="#2A4E96"/>
<path d="M74.8032 204.445H71.8628L72.1218 205.271L71.8628 205.863H74.8032V204.445Z" fill="#618DC1"/>
<path d="M73.5868 193.897H68.2472V195.974H73.5868V193.897Z" fill="white"/>
<path d="M52.1909 160.107H66.3768V148.409H52.1909V160.107Z" fill="#C3DAFC"/>
<path d="M59.2837 160.107H73.4696V148.409H59.2837V160.107Z" fill="#D4E4F8"/>
<path d="M52.1997 157.141H54.4479L54.2496 156.509L54.4479 156.057H52.1997V157.141Z" fill="#9DC3F3"/>
<path d="M59.2856 152.029H61.5338L61.3355 151.397L61.5338 150.945H59.2856V152.029Z" fill="#E3F0FF"/>
<path d="M59.2819 150.945H57.0337L57.2321 151.578L57.0337 152.029H59.2819V150.945Z" fill="#9DC3F3"/>
<path d="M73.4704 157.266H71.2232L71.4205 157.898L71.2232 158.35H73.4704V157.266Z" fill="#E3F0FF"/>
<path d="M72.5412 149.203H68.4591V150.791H72.5412V149.203Z" fill="white"/>
<path d="M77.5336 160.106H91.7195V148.409H77.5336V160.106Z" fill="#C3DAFC"/>
<path d="M84.6275 160.106H98.8134V148.409H84.6275V160.106Z" fill="#D4E4F8"/>
<path d="M77.5429 157.14H79.79L79.5928 156.507L79.79 156.055H77.5429V157.14Z" fill="#9DC3F3"/>
<path d="M84.6284 152.028H86.8767L86.6783 151.396L86.8767 150.944H84.6284V152.028Z" fill="#E3F0FF"/>
<path d="M84.6258 150.944H82.3787L82.576 151.577L82.3787 152.028H84.6258V150.944Z" fill="#9DC3F3"/>
<path d="M98.8155 157.265H96.5673L96.7656 157.898L96.5673 158.35H98.8155V157.265Z" fill="#E3F0FF"/>
<path d="M97.884 149.202H93.8019V150.79H97.884V149.202Z" fill="white"/>
<path d="M67.7951 183.986H57.0432V192.853H67.7951V183.986Z" fill="#ED823A"/>
<path d="M62.4178 183.986H51.666V192.853H62.4178V183.986Z" fill="#FF9E55"/>
<path d="M67.7886 190.603H66.0847L66.2357 190.124L66.0847 189.781H67.7886V190.603Z" fill="#DD732C"/>
<path d="M62.4191 186.729H60.7153L60.8652 186.25L60.7153 185.907H62.4191V186.729Z" fill="#FFB27D"/>
<path d="M62.4178 185.907H64.1216L63.9717 186.388L64.1216 186.729H62.4178V185.907Z" fill="#DD732C"/>
<path d="M51.6653 190.699H53.3692L53.2193 191.179L53.3692 191.522H51.6653V190.699Z" fill="#FFB27D"/>
<path d="M52.3705 185.791H55.4651V184.588H52.3705V185.791Z" fill="white"/>
<path d="M55.4432 216.407H57.2614L57.2614 184.381H55.4432L55.4432 216.407Z" fill="#FF9E55"/>
<path d="M52.0088 185.869H56.5323C57.2698 185.869 57.8683 185.271 57.8683 184.533C57.8683 183.795 57.2698 183.197 56.5323 183.197H52.0088C51.2712 183.197 50.6727 183.795 50.6727 184.533C50.6727 185.271 51.2712 185.869 52.0088 185.869Z" fill="#2A4E96"/>
<path d="M57.2631 200.394C57.4838 200.414 67.0734 206.083 67.0734 206.083V214.356H57.0984L57.2631 200.394Z" fill="#FF9E55"/>
<path d="M113.164 216.797C113.164 215.301 111.951 214.087 110.454 214.087C108.958 214.087 107.744 215.301 107.744 216.797C107.744 218.294 108.958 219.507 110.454 219.507C111.951 219.507 113.164 218.294 113.164 216.797Z" fill="#2A4E96"/>
<path d="M112.154 216.797C112.154 215.86 111.394 215.1 110.457 215.1C109.52 215.1 108.76 215.86 108.76 216.797C108.76 217.734 109.52 218.494 110.457 218.494C111.394 218.494 112.154 217.734 112.154 216.797Z" fill="#183E7A"/>
<path d="M55.4443 216.407H114.304V213.97H55.4443V216.407Z" fill="#FF9E55"/>
<path d="M61.5759 215.19C61.5759 212.805 59.6429 210.872 57.258 210.872C54.873 210.872 52.94 212.805 52.94 215.19C52.94 217.575 54.873 219.508 57.258 219.508C59.6429 219.508 61.5759 217.575 61.5759 215.19Z" fill="#2A4E96"/>
<path d="M59.9628 215.189C59.9628 213.696 58.7522 212.484 57.2575 212.484C55.7642 212.484 54.5521 213.695 54.5521 215.189C54.5521 216.684 55.7627 217.895 57.2575 217.895C58.7522 217.893 59.9628 216.683 59.9628 215.189Z" fill="#183E7A"/>
<path d="M53.3867 181.654C53.3867 181.654 55.4663 182.48 55.5766 182.866C55.687 183.251 55.687 184.74 55.1353 184.74C54.5837 184.74 54.0048 183.472 53.757 183.445C53.5091 183.417 52.8199 183.251 52.7368 182.949C52.6567 182.647 53.3867 181.654 53.3867 181.654Z" fill="#FFB27D"/>
<path d="M53.4485 182.257C53.7462 181.631 53.4545 181.394 53.4545 181.394C53.4545 181.394 47.3803 177.64 46.8922 177.245C46.4055 176.853 43.5944 170.039 43.5944 170.039C43.5944 170.039 42.5803 167.267 40.9087 167.136C39.4578 167.021 38.5525 167.833 38.0023 168.729C37.3449 169.796 37.4205 171.159 38.1762 172.16C39.8704 174.406 43.2785 178.858 44.2095 179.581C46.2816 181.187 52.8228 183.028 52.8228 183.028C52.8228 183.028 53.2157 182.748 53.4485 182.257Z" fill="#1F437C"/>
<path d="M41.2649 219.046H35.4416C35.3857 219.036 35.3434 219.024 35.3177 219.01C34.9292 218.815 35.0502 217.326 35.097 216.867C35.1061 216.782 35.1121 216.732 35.1121 216.732C35.1121 216.732 37.16 215.096 37.4411 216.348C37.4502 216.388 37.4608 216.426 37.4714 216.463C37.8265 217.636 39.4165 218.17 40.3339 218.318C41.0351 218.433 41.218 218.841 41.2649 219.046Z" fill="#2C3A64"/>
<path d="M37.5715 164.938C37.5715 164.938 38.9559 167.198 41.2336 166.685C41.2336 166.685 41.8653 165.637 41.9968 164.813C42.0134 164.712 42.0285 164.613 42.0452 164.52C42.1978 163.593 42.3081 163.076 42.3081 163.076C42.3081 163.076 42.3081 163.076 42.3066 163.076C42.2144 163.02 39.2235 161.228 39.2098 161.337C38.8834 163.858 37.5715 164.938 37.5715 164.938Z" fill="#FFB27D"/>
<path d="M39.4394 161.985C39.6601 162.602 40.5472 163.877 42.0465 164.521C42.1992 163.595 42.3095 163.078 42.3095 163.078C42.3095 163.078 42.3095 163.078 42.308 163.078C42.2218 163.039 39.3729 161.802 39.4394 161.985Z" fill="#ED975D"/>
<path d="M42.9909 163.082C42.9909 163.082 39.276 163.381 39.1249 161.066C38.9737 158.749 38.3919 157.229 40.7572 156.94C43.1224 156.651 43.6408 157.504 43.8796 158.265C44.1199 159.024 43.9537 162.943 42.9909 163.082Z" fill="#FFB27D"/>
<path d="M39.1541 161.694C39.1012 161.719 38.2926 161.838 37.2725 158.705C37.1123 158.214 37.1062 157.201 37.7727 156.408C38.4393 155.616 40.4403 155.215 42.062 155.155C43.6837 155.094 43.927 156.039 44.1628 156.987C44.4106 157.981 45.4187 158.921 45.4187 158.921C43.9451 159.474 42.4731 158.141 41.8791 158.233C41.2851 158.326 40.9496 159.189 40.8635 159.47C40.7773 159.749 40.6761 159.977 40.002 159.613C39.3279 159.249 39.5259 160.574 39.6045 160.834C39.6045 160.834 39.603 161.495 39.1541 161.694Z" fill="#2A4E96"/>
<path d="M25.9723 219.046H23.7763C23.3153 219.046 22.8045 218.585 22.676 217.74C22.5475 216.895 21.6014 216.434 21.3959 215.744C21.1903 215.053 22.2407 214.08 22.2407 214.08L22.416 213.855L22.5989 213.619L24.3385 214.028C24.3385 214.028 24.3808 214.442 24.408 214.97C24.4261 215.351 24.4367 215.792 24.4156 216.177C24.3642 217.099 24.674 218.091 25.4917 218.271C26.3123 218.451 25.9723 219.046 25.9723 219.046Z" fill="#2C3A64"/>
<path d="M40.0922 185.467C40.0922 185.467 39.7809 189.346 39.4151 194.01C38.9179 200.346 38.3209 208.127 38.262 209.602C38.1592 212.162 37.7496 216.256 37.7496 216.256C37.7496 216.256 36.7778 217.23 34.8327 216.818C34.8327 216.818 33.0992 210.974 32.6034 204.79C32.5959 204.688 32.5883 204.585 32.5808 204.484C32.1198 198.188 31.4034 184.93 31.4034 184.93L40.0922 185.467Z" fill="#FF9E55"/>
<path d="M38.5219 186.234C38.5219 186.234 39.134 187.63 38.0141 192.172C37.1919 195.504 32.6034 204.789 32.6034 204.789C32.5959 204.687 32.5883 204.585 32.5808 204.483C32.1198 198.187 31.4034 184.929 31.4034 184.929L38.5219 186.234Z" fill="#ED823A"/>
<path d="M38.9321 185.208C38.9321 185.208 33.0665 199.977 29.3802 206.58C25.6955 213.183 24.5439 215.026 24.5439 215.026C24.5439 215.026 22.4325 214.181 22.2406 213.605C22.2406 213.605 23.6492 200.858 26.1172 197.751C27.5122 195.995 29.1505 190.726 29.2261 188.882C29.3032 187.04 29.7248 183.393 29.7248 183.393L38.9321 185.208Z" fill="#FF9E55"/>
<path d="M39.2309 185.877C38.4389 185.653 30.3697 182.491 30.5269 182.033C31.074 180.442 31.6393 177.755 32.3133 174.489C32.4403 173.88 32.5824 173.283 32.7365 172.696C33.1401 171.17 33.6358 169.737 34.1965 168.483C35.2409 166.152 36.9366 164.571 38.2923 164.032C38.4691 163.965 38.8394 164.524 39.5649 165.162C40.2359 165.75 40.9326 165.739 41.7034 165.788L42.3261 166.891C42.8294 167.848 43.2601 169.188 43.3161 170.28C43.3176 170.278 39.3019 185.896 39.2309 185.877Z" fill="#2A4E96"/>
<path d="M43.3182 170.278L40.9031 170.018L34.9256 177.269C34.0672 178.31 32.651 178.706 31.3769 178.262L29.7265 183.395L39.8693 186.668L43.3182 170.278Z" fill="#FF9E55"/>
<path d="M39.4301 166.799C39.078 166.134 37.8749 164.225 37.8749 164.225L38.2951 164.03C38.5339 164.061 39.8049 165.959 40.2009 166.669C40.677 167.526 41.8936 170.204 41.8936 170.204L40.9037 170.017C40.9037 170.018 39.8442 167.582 39.4301 166.799Z" fill="#ED823A"/>
<path d="M50.8017 182.418C50.8017 182.418 52.8813 183.245 52.9917 183.631C53.102 184.016 53.102 185.505 52.5504 185.505C51.9987 185.505 51.4199 184.237 51.172 184.209C50.9241 184.182 50.235 184.016 50.1518 183.714C50.0717 183.411 50.8017 182.418 50.8017 182.418Z" fill="#FFB27D"/>
<path d="M50.7961 183.283C51.0938 182.657 50.8021 182.42 50.8021 182.42C50.8021 182.42 44.728 178.666 44.2413 178.271C43.7546 177.878 40.9435 171.065 40.9435 171.065C40.9435 171.065 39.9294 168.295 38.2578 168.162C36.8069 168.047 35.9016 168.858 35.3515 169.755C34.694 170.822 34.7696 172.185 35.5253 173.185C37.2195 175.431 40.6276 179.884 41.5586 180.606C43.6307 182.213 50.1719 184.054 50.1719 184.054C50.1719 184.054 50.5633 183.774 50.7961 183.283Z" fill="#2A4E96"/>
<path d="M108.758 193.94H84.1435V214.237H108.758V193.94Z" fill="#699DEE"/>
<path d="M96.4513 193.94H71.8372V214.237H96.4513V193.94Z" fill="#80B4FF"/>
<path d="M108.742 209.089H104.841L105.185 207.992L104.841 207.208H108.742V209.089Z" fill="#9DC3F3"/>
<path d="M96.4505 200.223H92.5497L92.8928 199.125L92.5497 198.341H96.4505V200.223Z" fill="#E3F0FF"/>
<path d="M96.4527 198.341H100.352L100.009 199.438L100.352 200.223H96.4527V198.341Z" fill="#9DC3F3"/>
<path d="M71.8372 209.307H75.7365L75.3935 210.404L75.7365 211.188H71.8372V209.307Z" fill="#E3F0FF"/>
<path d="M73.4483 198.073H80.532V195.318H73.4483V198.073Z" fill="white"/>
<path d="M84.142 194.15H98.8868V181.991H84.142V194.15Z" fill="#ED823A"/>
<path d="M91.5151 194.15H106.26V181.991H91.5151V194.15Z" fill="#FF9E55"/>
<path d="M84.1509 191.067H86.4875L86.2819 190.41L86.4875 189.939H84.1509V191.067Z" fill="#DD732C"/>
<path d="M91.5147 185.754H93.8513L93.6458 185.097L93.8513 184.627H91.5147V185.754Z" fill="#FFB27D"/>
<path d="M91.5157 184.627H89.1792L89.3847 185.284L89.1792 185.754H91.5157V184.627Z" fill="#DD732C"/>
<path d="M106.261 191.197H103.925L104.13 191.856L103.925 192.325H106.261V191.197Z" fill="#FFB27D"/>
<path d="M105.295 182.816H101.051V184.466H105.295V182.816Z" fill="white"/>
<path d="M349.715 217.27H335.913C334.238 217.27 332.869 215.899 332.869 214.226V201.765C332.869 200.09 334.238 198.721 335.913 198.721H349.715C351.389 198.721 352.759 200.09 352.759 201.765V214.226C352.76 215.899 351.389 217.27 349.715 217.27Z" fill="#163560"/>
<path d="M312.664 171.165C312.664 171.165 311.394 171.227 311.136 171.122C310.877 171.017 310.168 170.599 310.271 170.129C310.336 169.838 310.862 170.302 311.077 170.216C311.291 170.129 310.638 170.067 310.607 169.957C310.575 169.847 311.145 169.789 311.35 169.753C311.556 169.717 312.148 170.193 312.617 170.321C313.085 170.45 312.664 171.165 312.664 171.165Z" fill="#FFB27D"/>
<path d="M329.259 169.783C329.259 169.783 327.497 171.778 325.357 172.064C323.216 172.349 320.056 172.984 319.081 172.993C318.107 173.002 312.573 171.281 312.573 171.281C312.573 171.281 312.471 171.106 312.59 170.711C312.705 170.333 312.983 170.181 312.983 170.181C312.983 170.181 316.775 170.274 318.546 170.521C319.282 170.623 324.292 167.635 325.077 165.834C325.384 165.128 329.259 169.783 329.259 169.783Z" fill="#ED7D2B"/>
<path d="M277.528 187.347H242.481V216.246H277.528V187.347Z" fill="#ED823A"/>
<path d="M260.004 187.347H224.959V216.246H260.004V187.347Z" fill="#FF9E55"/>
<path d="M277.508 208.918H271.953L272.443 207.355L271.953 206.238H277.508V208.918Z" fill="#DD732C"/>
<path d="M260.007 196.29H254.453L254.943 194.729L254.453 193.612H260.007V196.29Z" fill="#FFB27D"/>
<path d="M260.005 193.612H265.558L265.068 195.175L265.558 196.29H260.005V193.612Z" fill="#DD732C"/>
<path d="M224.959 209.227H230.512L230.022 210.79L230.512 211.907H224.959V209.227Z" fill="#FFB27D"/>
<path d="M227.253 193.23H237.339V189.306H227.253V193.23Z" fill="white"/>
<path d="M273.753 158.476H238.707V187.375H273.753V158.476Z" fill="#ED823A"/>
<path d="M256.232 158.476H221.185V187.375H256.232V158.476Z" fill="#FF9E55"/>
<path d="M273.734 180.047H268.179L268.669 178.484L268.179 177.367H273.734V180.047Z" fill="#DD732C"/>
<path d="M256.232 167.419H250.679L251.167 165.857L250.679 164.741H256.232V167.419Z" fill="#FFB27D"/>
<path d="M256.231 164.741H261.784L261.296 166.304L261.784 167.419H256.231V164.741Z" fill="#DD732C"/>
<path d="M221.185 180.356H226.738L226.25 181.919L226.738 183.036H221.185V180.356Z" fill="#FFB27D"/>
<path d="M223.48 164.359H233.565V160.435H223.48V164.359Z" fill="white"/>
<path d="M292.92 144.776H283.625V218.15H292.92V144.776Z" fill="#163560"/>
<path d="M342.769 200.692H319.218C317.481 200.692 316.061 199.271 316.061 197.535V191.624C316.061 189.887 317.481 188.466 319.218 188.466H342.769C344.506 188.466 345.927 189.887 345.927 191.624V197.535C345.927 199.273 344.506 200.692 342.769 200.692Z" fill="#699DEE"/>
<path d="M296.003 210.174L333.839 211.708V196.092L295.376 196.719L296.003 210.174Z" fill="#234884"/>
<path d="M306.239 221.944C310.813 217.37 310.813 209.953 306.239 205.379C301.664 200.805 294.248 200.805 289.674 205.379C285.1 209.953 285.1 217.37 289.674 221.944C294.248 226.518 301.664 226.518 306.239 221.944Z" fill="#2A4E96"/>
<path d="M304.63 214.742C305.227 211.062 302.728 207.595 299.049 206.998C295.369 206.401 291.902 208.9 291.305 212.579C290.707 216.259 293.206 219.726 296.886 220.323C300.566 220.92 304.033 218.422 304.63 214.742Z" fill="#163560"/>
<path d="M359.38 218.293C360.551 213.332 357.479 208.36 352.517 207.188C347.555 206.016 342.583 209.089 341.412 214.051C340.24 219.012 343.312 223.984 348.274 225.156C353.236 226.328 358.208 223.255 359.38 218.293Z" fill="#2A4E96"/>
<path d="M345.071 216.143C345.071 213.205 347.453 210.823 350.391 210.823C353.329 210.823 355.711 213.205 355.711 216.143C355.711 219.081 353.329 221.463 350.391 221.463C347.453 221.463 345.071 219.081 345.071 216.143Z" fill="#163560"/>
<path d="M343.695 186.051V193.023H333.935L310.601 208.362V219.761H333.687C336.101 219.761 338.058 217.804 338.058 215.39V212.813C338.058 210.026 339.426 207.416 341.717 205.829C343.005 204.937 344.534 204.458 346.102 204.458H353.471C355.464 204.458 357.082 202.841 357.082 200.848V189.92C357.082 187.785 355.35 186.053 353.214 186.053H343.695V186.051Z" fill="#FF9E55"/>
<path d="M296.122 200.448L292.92 200.096L310.914 157.449C313.269 151.869 318.704 148.262 324.761 148.262H339.855C343.576 148.262 346.603 151.29 346.603 155.011V193.023H343.535V155.011C343.535 152.981 341.883 151.329 339.854 151.329H324.76C319.938 151.329 315.613 154.199 313.739 158.641L296.122 200.448Z" fill="#163560"/>
<path d="M311.529 220.597C311.067 220.597 310.692 220.222 310.692 219.76V211.177C310.692 205.267 305.884 200.46 299.975 200.46C299.942 200.46 299.91 200.458 299.877 200.454C299.812 200.446 293.242 199.74 288.221 203.653C287.857 203.937 287.331 203.872 287.047 203.508C286.763 203.144 286.828 202.618 287.192 202.334C292.583 198.134 299.313 198.713 300.02 198.787C306.831 198.812 312.364 204.361 312.364 211.177V219.76C312.367 220.222 311.992 220.597 311.529 220.597Z" fill="#163560"/>
<path d="M283.628 215.905H222.226V218.149H283.628V215.905Z" fill="#163560"/>
<path d="M283.623 191.908H281.531V218.151H283.623V191.908Z" fill="#163560"/>
<path d="M337.551 174.42L336.443 188.468H319.017C319.017 188.468 318.095 184.543 320.987 184.371C323.876 184.2 330.8 183.156 330.8 183.156C330.8 183.156 330.46 174.431 335.792 172.975C336.724 172.721 337.625 173.473 337.551 174.42Z" fill="#2A4E96"/>
<path d="M327.973 164.928C327.973 164.928 326.188 166.013 324.252 165.706C324.252 165.706 323.869 165.61 324.057 165.159C323.939 164.797 323.952 164.83 323.884 164.559C323.715 163.94 323.662 163.581 323.662 163.581L324.761 162.427L325.802 161.323C326.091 163.962 327.973 164.928 327.973 164.928Z" fill="#FFB27D"/>
<path d="M325.973 162.324C325.973 162.324 325.374 163.923 323.888 164.56C323.719 163.941 323.609 163.291 323.609 163.291L324.766 162.426L325.973 162.324Z" fill="#ED985F"/>
<path d="M322.429 163.527C322.429 163.527 325.837 163.954 326.076 161.859C326.315 159.766 326.916 158.41 324.751 158.049C322.585 157.689 322.071 158.44 321.819 159.12C321.566 159.802 321.55 163.363 322.429 163.527Z" fill="#FFB27D"/>
<path d="M327.155 157.709C327.183 157.672 327.254 157.641 327.411 157.627C327.411 157.627 327.283 157.553 327.114 157.554C327.073 157.337 326.941 156.953 326.559 156.873C326.559 156.873 326.766 156.974 326.801 157.205C326.346 156.773 325.397 156.481 322.809 156.784C319.4 157.183 320.609 159.33 321.062 159.575C321.516 159.82 322.602 159.061 323.431 159.096C324.259 159.131 324.46 160.317 324.747 160.47C325.033 160.623 324.912 160.338 325.283 160.153C325.655 159.967 325.716 160.594 325.622 161.005C325.528 161.418 326.069 161.936 326.069 161.936C326.069 161.936 326.069 161.936 326.574 161.35C327.079 160.763 327.484 158.346 327.226 157.843C327.2 157.799 327.177 157.754 327.155 157.709Z" fill="#2C3A64"/>
<path d="M331.177 177.983C331.177 177.983 315.636 178.678 313.515 180.215C311.395 181.754 307.686 194.731 307.686 194.731C307.686 194.731 308.439 195.385 310.67 194.731C310.67 194.731 313.81 190.731 315.012 187.987C316.079 185.551 316.46 184.323 316.916 184.447C317.888 184.712 327.854 185.056 330.798 183.155C332.684 181.94 330.928 177.982 331.177 177.983Z" fill="#163560"/>
<path d="M327.974 164.613C327.974 164.613 329.966 166.251 330.594 171.145C331.223 176.039 331.926 180.343 331.54 180.517C328.817 181.747 321.487 180.491 321.67 177.579C321.853 174.666 322.525 166.04 324.253 165.273C325.98 164.51 327.974 164.613 327.974 164.613Z" fill="#FF9E55"/>
<path d="M313.779 178.097C313.457 178.231 313.083 178.077 312.948 177.755L309.72 170.023C309.585 169.701 309.74 169.326 310.061 169.192C310.385 169.057 310.758 169.212 310.893 169.533L314.121 177.266C314.257 177.588 314.103 177.962 313.779 178.097Z" fill="#163560"/>
<path d="M313.586 173.743C313.586 173.743 312.359 174.077 312.085 174.03C311.81 173.983 311.027 173.728 311.027 173.247C311.027 172.948 311.641 173.288 311.833 173.158C312.023 173.028 311.373 173.108 311.317 173.007C311.263 172.905 311.807 172.727 312 172.647C312.194 172.567 312.876 172.904 313.359 172.928C313.844 172.954 313.586 173.743 313.586 173.743Z" fill="#FFB27D"/>
<path d="M329.49 168.819C329.49 168.819 328.199 171.146 326.171 171.887C324.143 172.627 321.194 173.929 320.243 174.148C319.293 174.367 313.519 173.879 313.519 173.879C313.519 173.879 313.38 173.729 313.412 173.318C313.442 172.925 313.681 172.715 313.681 172.715C313.681 172.715 317.403 171.988 319.187 171.849C319.927 171.79 324.176 167.792 324.554 165.864C324.702 165.107 329.49 168.819 329.49 168.819Z" fill="#FF9E55"/>
<path d="M310.408 194.293C310.408 194.293 310.584 196.323 310.154 196.534L304.662 196.522C304.662 196.522 304.662 195.889 305.545 195.747C306.427 195.605 307.977 195.09 308.24 193.939C308.503 192.789 310.408 194.293 310.408 194.293Z" fill="#163560"/>
<path d="M307.454 172.637H309.948C310.595 172.637 311.171 173.042 311.39 173.651L312.111 175.656C312.256 176.061 312.224 176.509 312.023 176.89L311.609 177.674C310.616 179.554 308.724 180.789 306.603 180.942L303.561 181.159L305.996 173.693C306.203 173.063 306.791 172.637 307.454 172.637Z" fill="#163560"/>
<path d="M157.475 165.744C157.475 165.744 156.484 163.656 157.26 162.37C158.037 161.085 161.116 161.003 161.116 161.003C161.116 161.003 160.848 161.15 160.835 161.284C160.821 161.419 161.719 160.937 162.334 162.02C162.951 163.106 162.92 164.12 162.266 165.621C161.612 167.124 157.475 165.744 157.475 165.744Z" fill="#233862"/>
<path d="M172.954 186.606C172.359 186.743 169.67 186.777 167.783 186.352C167.39 186.264 167.03 186.155 166.732 186.024C166.377 185.867 166.108 185.678 165.972 185.45C165.759 185.095 165.367 183.878 164.909 182.282C163.644 177.885 161.866 170.622 161.866 170.622C161.866 170.622 165.438 171.35 166.194 171.973C166.951 172.596 167.618 182.469 168.33 182.737C168.434 182.776 168.615 182.859 168.847 182.973C168.857 182.979 168.869 182.985 168.881 182.989C169.019 183.057 169.175 183.136 169.342 183.222C170.817 183.979 172.96 185.397 173.512 185.649C173.984 185.867 173.822 186.405 172.954 186.606Z" fill="#FF9E55"/>
<path d="M166.1 176.242C166.1 176.074 166.084 175.907 166.053 175.737C165.594 173.209 161.938 170.673 161.865 170.673V170.674C161.865 171.061 161.256 171.773 160.318 171.835C159.205 171.908 157.839 171.354 157.839 170.714C157.833 170.714 157.206 170.717 156.996 170.739C156.104 170.841 154.324 171.323 153.56 171.899C152.835 172.446 153.86 175.901 154.494 178.346C154.763 179.381 154.961 180.235 154.928 180.613C154.912 180.797 154.745 183.308 154.597 185.579C154.475 187.454 154.364 189.163 154.36 189.27C154.352 189.483 155.41 190.228 157.186 190.792C157.615 190.928 158.087 191.054 158.595 191.158C159.506 191.345 160.538 191.466 161.66 191.462C162.027 191.46 162.375 191.442 162.703 191.409C165.245 191.158 166.115 188.267 166.1 176.242Z" fill="#FF9E55"/>
<path d="M172.961 186.599C172.874 186.62 172.758 186.631 172.608 186.652C172.128 186.694 171.348 186.705 170.482 186.673C169.167 186.61 167.66 186.427 166.731 186.022C167.18 184.312 168.12 183.436 168.878 182.987C169.53 183.307 170.567 183.853 171.496 184.386H171.507C172.501 184.943 173.219 185.55 173.515 185.647C174.006 185.809 173.825 186.407 172.961 186.599Z" fill="#FFB27D"/>
<path d="M157.831 170.6C157.81 169.618 157.825 168.446 157.958 167.455L161.877 168.096C161.877 168.096 161.877 169.291 161.861 170.618C161.864 170.618 161.865 170.618 161.865 170.618C161.865 170.618 161.973 171.849 160.455 172.03C158.939 172.211 157.791 171.551 157.831 170.6Z" fill="#FFB27D"/>
<path d="M161.111 222.651C160.619 222.347 160.909 220.1 160.909 220.1C160.909 220.1 163.217 218.268 163.528 219.678C163.839 221.088 165.706 221.729 166.77 221.906C167.504 222.028 167.73 222.435 167.799 222.677L161.111 222.651Z" fill="#233862"/>
<path d="M154.039 222.651C153.546 222.347 153.836 220.1 153.836 220.1C153.836 220.1 156.144 218.268 156.455 219.678C156.767 221.088 158.633 221.729 159.697 221.906C160.432 222.028 160.657 222.435 160.726 222.677L154.039 222.651Z" fill="#233862"/>
<path d="M154.363 189.269C154.355 189.482 155.413 190.227 157.189 190.79C157.332 190.835 157.48 190.879 157.633 190.921C157.635 190.921 157.636 190.923 157.636 190.926C157.802 192.871 158.251 195.617 158.655 198.269C158.759 198.957 158.86 199.637 158.954 200.296C159.2 202.039 159.386 203.627 159.406 204.77V204.782C159.415 205.306 158.972 206.615 158.939 206.917C158.918 207.102 158.901 207.298 158.889 207.502C158.841 208.322 158.86 209.289 158.927 210.321C159.217 214.828 160.408 220.595 160.833 220.842C161.678 221.33 163.215 220.842 163.996 220.727C164.319 220.678 164.578 220.403 164.561 220.077C164.18 212.596 165.276 202.178 166.095 195.774C166.116 195.608 166.138 195.443 166.159 195.283C166.257 194.527 166.322 193.823 166.363 193.187C166.401 192.629 166.419 192.123 166.426 191.683C166.428 191.545 166.429 191.415 166.431 191.291C166.432 190.891 166.113 188.266 166.1 176.241C166.1 175.963 165.872 175.737 165.593 175.737H158.239C157.529 175.737 156.958 176.318 156.965 177.029C156.977 177.946 156.944 179.226 156.744 180.449C156.472 182.119 155.892 183.679 154.692 184.054C154.69 184.054 154.689 184.055 154.689 184.057C154.683 184.069 154.651 184.141 154.598 184.264V184.265C154.586 184.567 154.574 184.874 154.561 185.187C154.557 185.249 154.554 185.313 154.551 185.376C154.55 185.414 154.548 185.45 154.545 185.488C154.542 185.551 154.539 185.615 154.536 185.68C154.532 185.786 154.526 185.891 154.52 185.999C154.515 186.083 154.511 186.166 154.506 186.251C154.497 186.414 154.488 186.579 154.477 186.745C154.474 186.798 154.471 186.851 154.467 186.906C154.453 187.12 154.438 187.339 154.421 187.558C154.417 187.626 154.411 187.693 154.406 187.761C154.405 187.794 154.402 187.826 154.399 187.859C154.393 187.945 154.385 188.031 154.378 188.118C154.37 188.208 154.363 188.3 154.355 188.394C154.328 188.731 154.372 189.034 154.363 189.269Z" fill="#2A4E96"/>
<path d="M158.93 210.321C159.22 214.828 160.411 220.595 160.836 220.842C161.68 221.33 163.218 220.842 163.999 220.727C164.322 220.678 164.581 220.403 164.564 220.077C164.183 212.596 165.279 202.178 166.098 195.774C166.119 195.608 166.141 195.443 166.162 195.283C166.26 194.527 166.325 193.823 166.366 193.187C165.976 190.648 163.777 190.512 161.783 195.764C162.03 197.506 159.409 203.594 159.409 204.77V204.782C159.418 205.306 158.975 206.615 158.942 206.917C158.921 207.102 158.904 207.298 158.892 207.502C158.844 208.322 158.863 209.289 158.93 210.321Z" fill="#233862"/>
<path d="M154.28 204.557C154.22 205.079 153.611 206.318 153.537 206.613C152.529 210.668 153.085 220.282 153.585 220.665C154.359 221.261 155.948 220.978 156.736 220.968C157.063 220.963 157.356 220.723 157.382 220.398C158.001 212.738 160.571 202.218 162.223 196.029C163.054 192.911 163.172 190.62 163.172 190.62C163.172 190.62 155.452 185.889 154.616 188.473C153.878 190.759 154.748 200.557 154.28 204.557Z" fill="#2A4E96"/>
<path d="M156.731 170.773C156.731 170.773 159.008 173.424 159.141 175.736H157.984C157.984 175.736 157.69 173.221 155.977 170.931L156.731 170.773Z" fill="#2A4E96"/>
<path d="M162.388 170.767C164.017 173.233 164.211 175.736 164.211 175.736H165.367C165.27 173.918 164.14 171.982 163.51 171.034C163.08 170.915 162.684 170.827 162.388 170.767Z" fill="#2A4E96"/>
<path d="M154.91 185.002C154.968 187.716 154.629 193.121 154.629 193.121H153.027C152.271 189.318 152.004 186.872 152.004 185.537C152.004 185.274 152.005 185.029 152.007 184.802C152.017 183.663 152.048 183.001 152.048 183.001C151.747 176.096 153.127 172.403 153.559 171.895C153.993 171.388 155.974 170.93 155.974 170.93C155.974 170.93 156.629 172.837 156.896 174.371C157.164 175.905 154.797 182.354 154.895 184.558C154.903 184.697 154.907 184.845 154.91 185.002Z" fill="#FF9E55"/>
<path d="M154.813 189.496C154.738 191.451 154.632 193.118 154.632 193.118H153.028C152.75 191.761 152.548 190.575 152.387 189.559C152.109 187.711 152.002 186.396 152.002 185.54C152.002 185.273 152.002 185.028 152.013 184.803C152.601 184.674 153.627 184.59 154.908 185.005C154.931 186.216 154.878 187.946 154.813 189.496Z" fill="#FFB27D"/>
<path d="M155.763 195.129C155.784 195.567 153.871 196.572 153.295 196.305C152.718 196.037 152.697 194.52 153.028 193.12C153.359 191.721 154.631 193.12 154.631 193.12C154.631 193.12 155.742 194.68 155.763 195.129Z" fill="#FFB27D"/>
<path d="M176.678 186.654H172.606L173.514 185.649C173.514 185.649 174.562 185.862 175.246 185.649C175.93 185.435 176.678 186.654 176.678 186.654Z" fill="#FFB27D"/>
<path d="M157.866 168.468C157.866 168.468 158.836 169.616 159.873 169.618C161.164 169.621 161.868 168.379 161.868 168.379L157.866 168.468Z" fill="#ED975D"/>
<path d="M161.762 168.479C161.382 168.778 160.265 169.076 159.943 169.11C159.943 169.11 158.288 168.742 157.985 168.56C157.52 168.278 157.549 167.706 157.526 166.911C157.497 165.97 157.402 165.231 157.508 164.688C157.633 164.04 158.044 163.669 159.196 163.57C161.31 163.387 162.192 163.916 162.229 164.625C162.238 164.815 162.248 164.996 162.254 165.169C162.337 167.378 162.163 168.163 161.762 168.479Z" fill="#FFB27D"/>
<path d="M157.473 165.744C157.473 165.744 157.299 163.857 158.41 163.857C159.521 163.857 161.021 165.276 161.691 164.366C162.36 163.456 162.265 165.623 162.265 165.623L162.333 162.719L158.049 162.558L157.151 163.228L157.473 165.744Z" fill="#233862"/>
<path d="M201.515 171.089H188.154V182.105H201.515V171.089Z" fill="#D8702A"/>
<path d="M194.834 171.089H181.474V182.105H194.834V171.089Z" fill="#FF9E55"/>
<path d="M201.505 179.31H199.388L199.573 178.714L199.388 178.288H201.505V179.31Z" fill="#C15E1B"/>
<path d="M194.835 174.498H192.717L192.905 173.901L192.717 173.477H194.835V174.498Z" fill="#FFB27D"/>
<path d="M194.834 173.477H196.951L196.764 174.072L196.951 174.498H194.834V173.477Z" fill="#C15E1B"/>
<path d="M181.473 179.428H183.591L183.405 180.025L183.591 180.45H181.473V179.428Z" fill="#FFB27D"/>
<path d="M182.348 173.331H186.193V171.834H182.348V173.331Z" fill="white"/>
<path d="M187.774 181.637C187.449 181.427 186.715 180.963 186.682 181.075C186.657 181.155 186.701 181.286 186.792 181.422C186.352 181.277 185.909 181.188 184.877 181.428C184.67 181.477 184.486 181.602 184.378 181.785C184.279 181.954 184.247 182.161 184.519 182.317C185.063 182.627 184.901 182.435 185.657 182.887C186.413 183.339 187.321 183.426 187.847 183.068L188.566 182.92L188.61 181.726C188.612 181.723 188.196 181.69 187.774 181.637Z" fill="#FFB27D"/>
<path d="M206.502 169.341C206.502 169.341 204.45 171.017 202.468 169.784C202.468 169.784 202.218 168.585 202.364 167.764C202.382 167.663 202.399 167.565 202.416 167.473C202.577 166.548 202.644 166.023 202.644 166.023C202.644 166.023 202.644 166.023 202.647 166.023C202.751 166.001 206.167 165.293 206.143 165.401C205.62 167.887 206.502 169.341 206.502 169.341Z" fill="#FFB27D"/>
<path d="M205.712 165.935C205.299 166.444 204.043 167.357 202.415 167.471C202.577 166.546 202.643 166.021 202.643 166.021C202.643 166.021 202.643 166.021 202.647 166.021C202.737 166.015 205.834 165.785 205.712 165.935Z" fill="#ED975D"/>
<path d="M201.997 165.802C201.997 165.802 205.405 167.309 206.311 165.172C207.216 163.035 208.266 161.789 206.128 160.737C203.989 159.686 203.218 160.32 202.742 160.96C202.269 161.599 201.134 165.355 201.997 165.802Z" fill="#FFB27D"/>
<path d="M206.078 165.755C206.12 165.796 206.844 166.176 208.839 163.553C209.152 163.142 209.492 162.189 209.123 161.22C208.755 160.251 206.997 159.216 205.487 158.625C203.976 158.034 203.435 158.845 202.9 159.662C202.337 160.518 201.077 161.075 201.077 161.075C202.286 162.083 204.115 161.309 204.645 161.592C205.176 161.874 205.208 162.801 205.197 163.092C205.186 163.386 205.206 163.633 205.963 163.512C206.719 163.392 206.096 164.576 205.937 164.797C205.937 164.796 205.72 165.42 206.078 165.755Z" fill="#A9453D"/>
<path d="M211.294 222.678H213.49C213.951 222.678 214.462 222.217 214.59 221.372C214.719 220.527 215.665 220.066 215.87 219.375C216.076 218.685 215.025 217.711 215.025 217.711L214.85 217.486L214.667 217.252L212.928 217.661C212.928 217.661 212.885 218.076 212.858 218.603C212.84 218.984 212.829 219.425 212.85 219.811C212.902 220.733 212.592 221.724 211.774 221.904C210.955 222.084 211.294 222.678 211.294 222.678Z" fill="#2C3A64"/>
<path d="M196.001 222.678H201.824C201.88 222.668 201.922 222.656 201.948 222.642C202.336 222.447 202.215 220.958 202.168 220.499C202.159 220.414 202.153 220.364 202.153 220.364C202.153 220.364 200.105 218.728 199.824 219.98C199.815 220.02 199.805 220.058 199.794 220.095C199.439 221.268 197.849 221.802 196.932 221.95C196.229 222.066 196.047 222.474 196.001 222.678Z" fill="#2C3A64"/>
<path d="M197.174 189.1C197.174 189.1 197.485 192.98 197.851 197.644C198.348 203.979 198.945 211.76 199.004 213.235C199.107 215.795 199.516 219.89 199.516 219.89C199.516 219.89 200.488 220.863 202.433 220.452C202.433 220.452 204.167 214.607 204.663 208.421C204.67 208.32 204.678 208.217 204.685 208.116C205.146 201.82 205.863 188.562 205.863 188.562L197.174 189.1Z" fill="#FF9E55"/>
<path d="M198.332 188.842C198.332 188.842 198.131 191.263 199.251 195.805C200.073 199.137 204.662 208.421 204.662 208.421C204.669 208.32 204.677 208.217 204.684 208.116C205.145 201.82 205.862 188.562 205.862 188.562L198.332 188.842Z" fill="#ED823A"/>
<path d="M198.332 188.841C198.332 188.841 204.198 203.61 207.884 210.213C211.568 216.816 212.72 218.659 212.72 218.659C212.72 218.659 214.831 217.814 215.023 217.238C215.023 217.238 213.613 204.491 211.147 201.384C209.752 199.628 208.113 194.359 208.038 192.517C207.961 190.674 207.539 187.027 207.539 187.027L198.332 188.841Z" fill="#FF9E55"/>
<path d="M198.035 188.563C198.856 188.613 207.516 188.285 207.519 187.802C207.527 186.119 207.879 183.396 208.317 180.089C208.397 179.472 208.461 178.86 208.507 178.257C208.628 176.683 208.634 175.167 208.517 173.797C208.299 171.254 207.218 169.201 206.116 168.245C205.971 168.124 205.438 168.529 204.542 168.891C203.715 169.227 203.06 168.987 202.317 168.778L201.366 169.614C200.576 170.351 199.728 171.474 199.315 172.487C199.315 172.488 197.963 188.557 198.035 188.563Z" fill="#2A4E96"/>
<path d="M199.317 172.488L201.682 173.038L204.938 181.854C205.405 183.121 206.612 183.961 207.962 183.961L207.676 188.314L197.174 189.101L199.317 172.488Z" fill="#FF9E55"/>
<path d="M187.973 182.305C187.899 181.616 188.251 181.488 188.251 181.488C188.251 181.488 195.223 179.943 195.813 179.733C196.402 179.521 201.3 174.015 201.3 174.015C201.3 174.015 203.171 171.733 204.792 172.158C206.2 172.527 206.787 173.592 207.012 174.62C207.281 175.844 206.759 177.106 205.718 177.803C203.378 179.366 198.693 182.447 197.576 182.822C195.09 183.656 188.309 183.239 188.309 183.239C188.309 183.239 188.032 182.846 187.973 182.305Z" fill="#2A4E96"/>
<path d="M204.135 170.484C204.685 169.973 206.451 168.566 206.451 168.566L206.119 168.243C205.883 168.193 204.058 169.565 203.45 170.108C202.718 170.759 200.687 172.889 200.687 172.889L201.683 173.037C201.683 173.037 203.486 171.086 204.135 170.484Z" fill="#ED823A"/>
<circle cx="238.324" cy="14.9116" r="13.2998" fill="#FF9E55"/>
<path d="M228.723 24.1659C224.916 19.8581 220.636 7.64248 233.663 1.33701M235.48 1.05106C236.456 0.717934 240.447 0.475601 242.597 1.47498M245.322 2.7772C247.25 3.75277 251.23 7.02976 251.515 14.682" stroke="#FF9E55" stroke-width="0.950131"/>
<path d="M244.464 15.2758C244.477 16.551 244.11 17.8011 243.412 18.8681C242.713 19.935 241.714 20.7709 240.541 21.2701C239.367 21.7692 238.072 21.9091 236.819 21.6722C235.566 21.4353 234.412 20.8321 233.501 19.9389C232.591 19.0458 231.966 17.9028 231.706 16.6545C231.445 15.4062 231.56 14.1086 232.037 12.9259C232.514 11.7432 233.331 10.7284 234.384 10.01C235.438 9.29148 236.681 8.90155 237.956 8.88948L238.017 15.3368L244.464 15.2758Z" fill="white"/>
<path d="M244.901 14.2719C244.894 13.5015 244.735 12.7401 244.434 12.031C244.132 11.322 243.694 10.6794 243.144 10.1398C242.594 9.60013 241.943 9.17411 241.229 8.88601C240.514 8.59792 239.75 8.45339 238.979 8.46068L239.035 14.3275L244.901 14.2719Z" fill="white"/>
<circle cx="327.228" cy="92.5521" r="16.4604" fill="#699DEE"/>
<path d="M315.346 104.006C310.634 98.6744 305.337 83.5558 321.459 75.7519M323.708 75.398C324.915 74.9857 329.855 74.6858 332.516 75.9227M335.889 77.5344C338.275 78.7418 343.2 82.7975 343.554 92.2683" stroke="#699DEE" stroke-width="0.950131"/>
<path d="M320.212 92.259C319.721 92.4595 319.486 93.0199 319.686 93.5107C319.887 94.0014 320.447 94.2367 320.938 94.0361L320.212 92.259ZM334.002 84.137C333.947 83.6097 333.474 83.2272 332.947 83.2826L324.355 84.1848C323.828 84.2402 323.445 84.7125 323.501 85.2397C323.556 85.7669 324.028 86.1495 324.556 86.0941L332.193 85.2921L332.995 92.9293C333.05 93.4566 333.522 93.8391 334.05 93.7837C334.577 93.7284 334.959 93.2561 334.904 92.7288L334.002 84.137ZM320.938 94.0361C322.296 93.481 324.76 92.0976 327.225 90.4272C329.684 88.7604 332.265 86.7278 333.793 84.8414L332.301 83.6331C330.958 85.2912 328.572 87.1951 326.148 88.838C323.729 90.4773 321.392 91.7768 320.212 92.259L320.938 94.0361Z" fill="white"/>
<rect x="320.446" y="95.5646" width="2.93317" height="1.98037" rx="0.639935" fill="white"/>
<rect x="325.332" y="92.8912" width="2.93317" height="4.6532" rx="0.639935" fill="white"/>
<rect x="330.762" y="90.1081" width="2.93317" height="7.43632" rx="0.639935" fill="white"/>
<path d="M339.139 6.8512L321.407 42.538C321.05 43.2544 320.021 43.2294 319.699 42.4974L315.136 32.0679L339.139 6.8512Z" fill="#163560"/>
<path d="M315.136 32.0679L302.777 27.9605L339.139 6.85123L315.136 32.0679Z" fill="#699DEE"/>
<path d="M339.138 6.8512L322.757 34.8488L337.474 39.7821L339.138 6.8512Z" fill="#699DEE"/>
<path d="M317.857 51.4602L317.391 51.285C317.597 50.7407 317.8 50.1964 317.997 49.6552L318.463 49.8273C318.263 50.3684 318.06 50.9128 317.857 51.4602Z" fill="#163560"/>
<path d="M84.8081 140.737L84.7237 140.246C85.8339 140.055 86.9629 139.777 88.0825 139.42L88.2326 139.895C87.0942 140.258 85.9434 140.54 84.8081 140.737ZM89.6587 139.398L89.4835 138.932C90.5218 138.541 91.5883 138.069 92.6547 137.527L92.8799 137.972C91.7978 138.519 90.7157 139.001 89.6587 139.398ZM94.2153 137.265L93.9744 136.83C94.9408 136.292 95.9165 135.704 96.9517 135.025L97.2238 135.441C96.1761 136.126 95.191 136.72 94.2153 137.265ZM98.4716 134.602L98.1901 134.193C99.0752 133.583 100.001 132.916 101.02 132.15L101.321 132.547C100.295 133.317 99.3629 133.989 98.4716 134.602ZM102.515 131.64L102.212 131.246C103.178 130.501 104.138 129.744 104.964 129.094L105.274 129.485C104.448 130.135 103.485 130.895 102.515 131.64ZM106.45 128.552L106.14 128.161C107.022 127.467 107.963 126.722 108.898 126.006L109.202 126.4C108.27 127.117 107.328 127.858 106.45 128.552ZM110.393 125.499L110.096 125.102C111.134 124.329 111.991 123.716 112.954 123.066L113.233 123.478C112.276 124.123 111.425 124.733 110.393 125.499ZM114.481 122.653L114.212 122.233C115.2 121.598 116.21 120.985 117.214 120.413L117.461 120.844C116.46 121.414 115.459 122.021 114.481 122.653ZM118.765 120.122L118.531 119.684C119.559 119.13 120.617 118.598 121.667 118.107L121.877 118.558C120.832 119.046 119.785 119.571 118.765 120.122ZM212.183 120.003C212.173 120.003 211.873 120.003 211.864 120.003L211.867 119.506C213.033 119.512 214.219 119.477 215.344 119.402L215.379 119.9C214.337 119.969 213.265 120.003 212.183 120.003ZM210.359 119.972C209.193 119.934 208.02 119.843 206.857 119.753L206.897 119.258C208.055 119.349 209.218 119.437 210.378 119.477L210.359 119.972ZM216.88 119.771L216.83 119.277C218.015 119.158 219.172 118.986 220.267 118.774L220.361 119.262C219.254 119.481 218.081 119.649 216.88 119.771ZM205.359 119.624C204.236 119.521 203.063 119.402 201.875 119.268L201.931 118.774C203.116 118.908 204.286 119.027 205.406 119.127L205.359 119.624ZM200.383 119.096C199.27 118.961 198.103 118.811 196.912 118.645L196.981 118.151C198.169 118.314 199.335 118.467 200.446 118.602L200.383 119.096ZM221.837 118.939L221.718 118.458C222.881 118.176 223.998 117.832 225.03 117.441L225.205 117.907C224.157 118.304 223.022 118.652 221.837 118.939ZM195.426 118.436C194.272 118.27 193.118 118.095 191.964 117.916L192.039 117.425C193.19 117.604 194.341 117.779 195.495 117.945L195.426 118.436ZM244.923 118.298L244.92 117.801C246.04 117.798 247.209 117.751 248.398 117.66L248.435 118.157C247.234 118.245 246.052 118.292 244.923 118.298ZM243.416 118.276C242.202 118.239 241.023 118.145 239.907 118.001L239.969 117.507C241.07 117.647 242.237 117.738 243.431 117.776L243.416 118.276ZM249.933 118.023L249.883 117.529C251.003 117.413 252.166 117.263 253.336 117.078L253.414 117.569C252.235 117.754 251.065 117.907 249.933 118.023ZM123.234 117.945L123.034 117.488C124.104 117.019 125.198 116.578 126.29 116.174L126.462 116.64C125.383 117.041 124.297 117.479 123.234 117.945ZM238.412 117.773C237.211 117.56 236.06 117.275 234.984 116.934L235.134 116.462C236.188 116.8 237.32 117.075 238.496 117.285L238.412 117.773ZM190.482 117.682C189.328 117.497 188.177 117.31 187.029 117.119L187.111 116.628C188.258 116.818 189.409 117.006 190.56 117.191L190.482 117.682ZM226.609 117.325L226.403 116.872C227.488 116.38 228.501 115.811 229.415 115.189L229.696 115.598C228.761 116.24 227.723 116.818 226.609 117.325ZM254.899 117.316L254.812 116.828C255.956 116.621 257.095 116.387 258.221 116.115L258.336 116.599C257.198 116.872 256.053 117.106 254.899 117.316ZM185.547 116.868C184.396 116.675 183.245 116.481 182.097 116.284L182.182 115.792C183.33 115.986 184.48 116.183 185.631 116.377L185.547 116.868ZM233.558 116.424C232.426 115.974 231.388 115.464 230.393 114.838L230.659 114.419C230.681 114.432 230.7 114.444 230.722 114.46L230.594 114.303C231.497 113.562 232.301 112.733 232.986 111.845L233.38 112.148C232.692 113.043 231.888 113.872 230.988 114.622C231.848 115.132 232.764 115.577 233.737 115.964L233.558 116.424ZM259.794 116.224L259.666 115.742C260.779 115.442 261.898 115.104 262.996 114.735L263.156 115.207C262.045 115.58 260.916 115.924 259.794 116.224ZM127.872 116.143L127.712 115.674C128.81 115.298 129.939 114.948 131.065 114.635L131.2 115.114C130.08 115.423 128.96 115.77 127.872 116.143ZM180.618 116.033C179.467 115.839 178.316 115.645 177.169 115.455L177.25 114.963C178.398 115.154 179.549 115.348 180.7 115.542L180.618 116.033ZM175.689 115.211C174.539 115.023 173.385 114.841 172.237 114.663L172.312 114.172C173.463 114.347 174.617 114.532 175.771 114.719L175.689 115.211ZM132.638 114.732L132.516 114.25C133.639 113.966 134.793 113.709 135.941 113.487L136.034 113.975C134.896 114.194 133.751 114.45 132.638 114.732ZM264.572 114.71L264.4 114.244C265.479 113.85 266.568 113.415 267.631 112.952L267.828 113.409C266.758 113.875 265.661 114.313 264.572 114.71ZM170.754 114.441C169.535 114.26 168.403 114.1 167.296 113.953L167.361 113.459C168.475 113.606 169.607 113.765 170.83 113.947L170.754 114.441ZM229.149 113.959C228.21 113.227 227.357 112.392 226.612 111.482L226.997 111.166C227.719 112.048 228.548 112.858 229.455 113.568L229.149 113.959ZM165.807 113.762C164.619 113.612 163.449 113.478 162.339 113.362L162.392 112.867C163.508 112.983 164.678 113.121 165.873 113.271L165.807 113.762ZM137.501 113.706L137.417 113.215C138.552 113.021 139.722 112.852 140.888 112.714L140.948 113.208C139.79 113.346 138.63 113.512 137.501 113.706ZM160.847 113.212C159.662 113.099 158.492 113.005 157.369 112.927L157.404 112.43C158.533 112.508 159.709 112.602 160.897 112.714L160.847 113.212ZM142.433 113.049L142.386 112.555C143.524 112.442 144.703 112.358 145.886 112.295L145.911 112.792C144.735 112.852 143.565 112.939 142.433 113.049ZM155.871 112.836C154.686 112.771 153.513 112.727 152.384 112.702L152.397 112.204C153.532 112.229 154.711 112.273 155.899 112.339L155.871 112.836ZM269.198 112.789L268.988 112.339C270.03 111.854 271.074 111.332 272.097 110.781L272.331 111.219C271.302 111.773 270.249 112.301 269.198 112.789ZM147.402 112.727L147.387 112.229C148.528 112.189 149.72 112.173 150.893 112.182L150.889 112.68C149.729 112.674 148.541 112.689 147.402 112.727ZM234.249 110.897L233.827 110.634C234.425 109.667 234.928 108.613 235.253 107.524L235.729 107.668C235.391 108.801 234.869 109.893 234.249 110.897ZM273.648 110.493L273.401 110.061C274.399 109.495 275.402 108.888 276.381 108.26L276.65 108.679C275.668 109.311 274.655 109.921 273.648 110.493ZM225.705 110.252C225.024 109.217 224.505 108.138 224.167 107.046L224.642 106.899C224.967 107.947 225.465 108.982 226.125 109.98L225.705 110.252ZM277.911 107.85L277.632 107.437C278.586 106.796 279.54 106.117 280.475 105.416L280.772 105.813C279.834 106.52 278.871 107.205 277.911 107.85ZM236.076 106.176L235.585 106.095C235.772 104.962 235.779 103.802 235.554 102.707L236.041 102.607C236.276 103.764 236.273 104.984 236.076 106.176ZM223.817 105.554C223.632 104.365 223.641 103.129 223.973 101.981L224.451 102.116C224.142 103.198 224.136 104.359 224.311 105.475L223.817 105.554ZM281.97 104.9L281.663 104.509C282.567 103.802 283.474 103.057 284.362 102.297L284.688 102.676C283.793 103.442 282.88 104.19 281.97 104.9ZM285.82 101.681L285.488 101.309C286.342 100.545 287.202 99.7446 288.043 98.9281L288.39 99.2847C287.546 100.107 286.68 100.915 285.82 101.681ZM235.134 101.318C234.709 100.276 233.98 99.2659 233.152 98.6434L233.455 98.2493C234.353 98.925 235.134 100.004 235.594 101.127L235.134 101.318ZM224.999 100.786L224.564 100.545C225.155 99.4755 226.021 98.5871 227.069 97.9771L227.319 98.4088C226.347 98.9719 225.543 99.7946 224.999 100.786ZM289.463 98.2274L289.11 97.877C289.92 97.0637 290.73 96.2128 291.524 95.3525L291.89 95.6904C291.092 96.5538 290.276 97.4078 289.463 98.2274ZM231.91 97.949C230.891 97.5579 229.743 97.5204 228.636 97.8426L228.498 97.364C229.708 97.0136 230.969 97.0543 232.092 97.486L231.91 97.949ZM292.903 94.5705L292.531 94.2389C293.294 93.3818 294.06 92.4902 294.808 91.5893L295.189 91.9084C294.439 92.8124 293.669 93.7102 292.903 94.5705ZM296.146 90.7415L295.758 90.4287C296.478 89.534 297.2 88.6049 297.904 87.6696L298.301 87.9699C297.594 88.9115 296.869 89.8437 296.146 90.7415ZM299.199 86.7624L298.798 86.4684C299.48 85.5393 300.159 84.5789 300.819 83.6185L301.228 83.9001C300.565 84.8636 299.883 85.8271 299.199 86.7624ZM302.073 82.6551L301.66 82.3798C302.298 81.4257 302.939 80.4403 303.561 79.4517L303.983 79.7176C303.358 80.7062 302.714 81.6978 302.073 82.6551ZM304.778 78.4382L304.352 78.1786C304.956 77.1963 305.557 76.189 306.141 75.1786L306.573 75.4288C305.985 76.4424 305.381 77.4528 304.778 78.4382ZM307.317 74.1275L306.886 73.8835C307.452 72.8793 308.018 71.8533 308.568 70.8241L309.006 71.0587C308.452 72.0879 307.886 73.1202 307.317 74.1275ZM309.703 69.7323L309.262 69.5008C309.794 68.481 310.326 67.4331 310.842 66.3914L311.289 66.6104C310.77 67.6614 310.238 68.7094 309.703 69.7323ZM311.946 65.2621L311.499 65.0462C311.999 64.0077 312.499 62.941 312.981 61.8836L313.434 62.0901C312.95 63.1505 312.449 64.2204 311.946 65.2621ZM314.05 60.7199L313.597 60.5166C314.066 59.4655 314.532 58.3863 314.986 57.3101L315.442 57.5041C314.989 58.5833 314.52 59.6657 314.05 60.7199ZM316.018 56.1152L315.558 55.9275C315.999 54.8545 316.434 53.7627 316.853 52.6804L317.315 52.8618C316.896 53.9473 316.462 55.0422 316.018 56.1152Z" fill="#163560"/>
<path d="M81.5493 141.071L81.5336 140.574C82.1059 140.555 82.6845 140.515 83.2537 140.455L83.3068 140.949C82.7252 141.009 82.1341 141.053 81.5493 141.071Z" fill="#163560"/>
<path d="M78.0494 140.855C76.9111 140.592 75.7883 140.204 74.7156 139.7L74.9283 139.25C75.9697 139.741 77.058 140.116 78.162 140.37L78.0494 140.855ZM73.374 138.996C72.3576 138.402 71.4006 137.701 70.5281 136.913L70.8627 136.544C71.7071 137.31 72.6359 137.989 73.6242 138.568L73.374 138.996ZM69.4523 135.846C68.6517 134.977 67.9511 134.029 67.3569 133.009L67.7854 132.759C68.364 133.747 69.0395 134.667 69.8182 135.508L69.4523 135.846ZM66.6533 131.667C66.156 130.603 65.7682 129.48 65.4993 128.332L65.984 128.22C66.2436 129.333 66.622 130.422 67.1036 131.454L66.6533 131.667ZM65.2209 126.846C65.0552 125.676 65.0114 124.494 65.0959 123.321L65.5931 123.355C65.5118 124.494 65.5525 125.639 65.7119 126.778L65.2209 126.846Z" fill="#324D90"/>
<g clip-path="url(#clip0_0_20)">
<path d="M96.5555 80.3522C92.0615 117.505 70.4542 117.471 65.9717 80.3506C66.3148 60.7522 96.2141 60.7523 96.5555 80.3522Z" fill="#324D90"/>
<path d="M89.4493 79.5671C89.2662 90.0586 73.2611 90.057 73.078 79.5671C73.2627 69.0757 89.2662 69.0773 89.4493 79.5671Z" fill="white"/>
</g>
<defs>
<clipPath id="clip0_0_20">
<rect width="30.5837" height="42.5513" fill="white" transform="translate(65.9713 65.6525)"/>
</clipPath>
</defs>
</svg>
